<svg width="24" height="24" viewBox="0 0 24 24" fill="none" xmlns="http://www.w3.org/2000/svg">
<path d="M22.56 12.25C22.56 11.45 22.49 10.68 22.36 9.92H12V14.45H18.02C17.73 16.03 16.89 17.39 15.63 18.25V20.75H19.34C21.45 18.88 22.56 15.91 22.56 12.25Z" fill="#4285F4"/>
<path d="M12 23C14.97 23 17.47 22.02 19.34 20.75L15.63 18.25C14.59 18.92 13.4 19.33 12 19.33C9.21 19.33 6.82 17.5 5.92 15.01H2.06V17.58C3.93 20.72 7.7 23 12 23Z" fill="#34A853"/>
<path d="M5.92 15.01C5.71 14.45 5.58 13.83 5.58 13.17C5.58 12.51 5.71 11.89 5.92 11.34V8.77H2.06C1.26 10.22 0.770004 11.66 0.770004 13.17C0.770004 14.68 1.26 16.12 2.06 17.58L5.92 15.01Z" fill="#FBBC05"/>
<path d_old="M12 5.67C13.67 5.67 15.04 6.27 16.09 7.25L19.43 3.91C17.47 2.02 14.97 1 12 1C7.7 1 3.93 3.28 2.06 6.42L5.92 8.99C6.82 6.5 9.21 4.67 12 4.67Z" d="M12 5.67C13.67 5.67 15.04 6.27 16.09 7.25L19.43 3.91C17.47 2.02 14.97 1 12 1C7.7 1 3.93 3.28 2.06 6.42L5.92 8.99C6.82 6.5 9.21 4.67 12 4.67Z" fill="#EA4335"/>
</svg>
